<svg id="Layer_1" data-name="Layer 1" xmlns="http://www.w3.org/2000/svg" viewBox="0 0 26.32 26.32"><defs><style>.cls-1{fill:#fff;}</style></defs><path class="cls-1" d="M6.7,7.38,7.3,8,4.82,10.48l1.93,1.94,2.5-2.5.57.57L7.32,13l1.91,1.9,5.69-5.69L8,2.34,2.34,8,4.21,9.87Zm15.09,8.7L16.1,21.77,18,23.68l2.49-2.5.57.57-2.5,2.49,1.94,1.94L23,23.7l.6.6-2.48,2.49L23,28.66,28.66,23Zm5.95-7.26a1.77,1.77,0,0,0,0-2.5l-3.1-3.11a1.77,1.77,0,0,0-2.5,0L20.22,5.14l5.6,5.6ZM4.34,24.3l2.32,2.33L11.34,25,6,19.62ZM19.62,5.71,6.44,18.89l5.64,5.64L25.26,11.35ZM9,18.88,19.61,8.27l.61.62L9.61,19.5Zm1.23,1.24L20.84,9.51l.62.62L10.85,20.73Zm1.24,1.23L22.08,10.74l.62.62L12.09,22ZM3.06,27.91l2.72-1L4.05,25.19Z" transform="translate(-2.34 -2.34)"/></svg>