<svg id="icon-manage" xmlns="http://www.w3.org/2000/svg" viewBox="0 0 32 32"><defs><style>.cls-1{fill:#fff;}.cls-2{fill:none;}</style></defs><path id="Icon_manage_3" data-name="Icon manage 3" class="cls-1" d="M17.28,24.23a6.67,6.67,0,0,0,0-1.63L19,21.23a.42.42,0,0,0,.1-.53l-1.66-2.88a.42.42,0,0,0-.51-.19l-2.07.84a5.84,5.84,0,0,0-1.41-.82l-.31-2.2a.4.4,0,0,0-.41-.35H9.43a.4.4,0,0,0-.41.35l-.32,2.2a6.34,6.34,0,0,0-1.4.82l-2.07-.84a.42.42,0,0,0-.51.19L3.06,20.7a.4.4,0,0,0,.1.53L4.91,22.6a6.67,6.67,0,0,0,0,1.63L3.16,25.6a.43.43,0,0,0-.1.54L4.72,29a.43.43,0,0,0,.51.18l2.07-.83a6.3,6.3,0,0,0,1.4.81L9,31.39a.41.41,0,0,0,.41.35h3.33a.4.4,0,0,0,.4-.35l.32-2.21a6.61,6.61,0,0,0,1.41-.81L17,29.2a.39.39,0,0,0,.5-.18l1.67-2.88a.43.43,0,0,0-.1-.54l-1.76-1.37Zm-6.19,2.1A2.91,2.91,0,1,1,14,23.42h0A2.91,2.91,0,0,1,11.09,26.33Z"/><path id="Icon_manage_2" data-name="Icon manage 2" class="cls-1" d="M28.85,12.24a5.8,5.8,0,0,0,0-1.36l1.47-1.15a.37.37,0,0,0,.08-.45L29,6.88a.36.36,0,0,0-.43-.16l-1.73.7a4.77,4.77,0,0,0-1.18-.68l-.26-1.85a.34.34,0,0,0-.34-.29H22.29a.35.35,0,0,0-.35.29l-.26,1.85a5,5,0,0,0-1.18.68l-1.73-.7a.34.34,0,0,0-.42.16L17,9.28a.36.36,0,0,0,.09.45l1.47,1.15a4.65,4.65,0,0,0,0,1.36L17,13.39a.36.36,0,0,0-.09.45l1.4,2.4a.34.34,0,0,0,.42.16l1.73-.7a5,5,0,0,0,1.18.68l.26,1.85a.34.34,0,0,0,.34.29h2.79a.34.34,0,0,0,.34-.29l.26-1.85a5,5,0,0,0,1.18-.68l1.73.7a.33.33,0,0,0,.42-.16l1.4-2.4a.36.36,0,0,0-.09-.45l-1.46-1.15ZM23.68,14a2.44,2.44,0,1,1,2.43-2.44h0A2.44,2.44,0,0,1,23.68,14Z"/><path id="Icon_manage_1" data-name="Icon manage 1" class="cls-1" d="M13.49,7.34a4.52,4.52,0,0,0,0-1.2l1.29-1a.3.3,0,0,0,.07-.39L13.63,2.62a.31.31,0,0,0-.37-.13l-1.52.61a4.69,4.69,0,0,0-1-.6L10.47.88a.29.29,0,0,0-.3-.25H7.73a.29.29,0,0,0-.3.25L7.19,2.5a5,5,0,0,0-1,.6L4.64,2.49a.29.29,0,0,0-.37.13L3,4.74a.31.31,0,0,0,.08.39l1.29,1a4.52,4.52,0,0,0,0,1.2l-1.29,1a.32.32,0,0,0-.08.4l1.23,2.11a.29.29,0,0,0,.37.13l1.52-.61a4.27,4.27,0,0,0,1,.6l.23,1.62a.31.31,0,0,0,.3.26h2.45a.3.3,0,0,0,.3-.26L10.7,11a4.08,4.08,0,0,0,1-.6l1.52.61a.31.31,0,0,0,.38-.13l1.22-2.11a.33.33,0,0,0-.07-.4l-1.29-1ZM9,8.88a2.14,2.14,0,1,1,2.14-2.14h0A2.16,2.16,0,0,1,9,8.88Z"/><rect id="Rectangle_659" data-name="Rectangle 659" class="cls-2" width="32" height="32"/></svg>