<svg id="icon-settings" xmlns="http://www.w3.org/2000/svg" width="32" height="32" viewBox="0 0 32 32">
  <path id="Icon_material-settings" data-name="Icon material-settings" d="M28.919,19.325a11.587,11.587,0,0,0,.1-1.457,11.587,11.587,0,0,0-.1-1.457l3.137-2.453a.75.75,0,0,0,.178-.952L29.261,7.862a.747.747,0,0,0-.907-.327l-3.7,1.487a10.863,10.863,0,0,0-2.513-1.457l-.565-3.94A.725.725,0,0,0,20.845,3H14.9a.725.725,0,0,0-.729.624L13.6,7.565a11.423,11.423,0,0,0-2.513,1.457L7.39,7.535a.725.725,0,0,0-.907.327L3.509,13.006a.733.733,0,0,0,.178.952l3.137,2.453a11.791,11.791,0,0,0-.1,1.457,11.791,11.791,0,0,0,.1,1.457L3.688,21.778a.75.75,0,0,0-.178.952l2.974,5.144a.747.747,0,0,0,.907.327l3.7-1.487A10.863,10.863,0,0,0,13.6,28.172l.565,3.94a.725.725,0,0,0,.729.624h5.947a.725.725,0,0,0,.729-.624l.565-3.94a11.423,11.423,0,0,0,2.513-1.457l3.7,1.487a.725.725,0,0,0,.907-.327l2.974-5.144a.75.75,0,0,0-.178-.952l-3.137-2.453ZM17.872,23.072a5.2,5.2,0,1,1,5.2-5.2A5.21,5.21,0,0,1,17.872,23.072Z" transform="translate(-1.406 -1)" fill="#fff"/>
  <rect id="Rectangle_659" data-name="Rectangle 659" width="32" height="32" fill="none"/>
</svg>
