<svg id="Layer_1" data-name="Layer 1" xmlns="http://www.w3.org/2000/svg" viewBox="0 0 19 27"><defs><style>.cls-1{fill:#fff;}</style></defs><path class="cls-1" d="M9,2h1V4H9Z" transform="translate(-6 -2)"/><path class="cls-1" d="M13,2h1V4H13Z" transform="translate(-6 -2)"/><path class="cls-1" d="M17,2h1V4H17Z" transform="translate(-6 -2)"/><path class="cls-1" d="M21,2h1V4H21Z" transform="translate(-6 -2)"/><path class="cls-1" d="M10,22h1v1H10Z" transform="translate(-6 -2)"/><path class="cls-1" d="M10,17h1v1H10Z" transform="translate(-6 -2)"/><path class="cls-1" d="M10,12h1v1H10Z" transform="translate(-6 -2)"/><path class="cls-1" d="M23,4H22V6H21V4H18V6H17V4H14V6H13V4H10V6H9V4H8A2,2,0,0,0,6,6V27a2,2,0,0,0,2,2H23a2,2,0,0,0,2-2V6A2,2,0,0,0,23,4ZM12,24H9V21h3Zm0-5H9V16h3Zm0-5H9V11h3Zm10,9H14V22h8Zm0-5H14V17h8Zm0-5H14V12h8Z" transform="translate(-6 -2)"/></svg>