<svg id="icon-ptp" xmlns="http://www.w3.org/2000/svg" width="32" height="32" viewBox="0 0 32 32">
  <path id="ptp" d="M15.5,18.63c3.6,0,6.62-1.22,6.8-2.82-.53-1.5-1.12-3.14-1.69-4.75-.4,1.15-2.6,2-5.11,2s-4.71-.81-5.11-2c-.57,1.61-1.16,3.25-1.69,4.75C8.88,17.41,11.9,18.63,15.5,18.63Zm0-10.1c1.69,0,3.27-.53,3.73-1.35-.64-1.78-1.18-3.31-1.53-4.27-.23-.64-1.26-1-2.2-1s-2,.34-2.2,1c-.35,1-.89,2.49-1.53,4.27.46.82,2.04,1.35,3.73,1.35ZM28.74,20.12l-5.66-2.28.65,1.82c0,1.93-3.78,3.47-8.23,3.47s-8.2-1.54-8.23-3.47l.65-1.82L2.26,20.12C.67,20.76.61,22,2.11,22.75l10.65,5.71a6.48,6.48,0,0,0,5.48,0l10.65-5.71C30.39,22,30.33,20.76,28.74,20.12Z" transform="translate(-0.025 1.09)" fill="#fff"/>
  <rect id="Rectangle_658" data-name="Rectangle 658" width="32" height="32" fill="none"/>
</svg>
