<svg id="Layer_1" data-name="Layer 1" xmlns="http://www.w3.org/2000/svg" viewBox="0 0 30.46 23.59"><defs><style>.cls-1{fill:#fff;}</style></defs><path class="cls-1" d="M23.08,17.35a20.64,20.64,0,0,1,3.51.32v2.08a14.77,14.77,0,0,0-3.51-.33,12.32,12.32,0,0,0-6.22,1.36V18.45A15.2,15.2,0,0,1,23.08,17.35Zm-6.22-2.59a16.31,16.31,0,0,1,6.22-1.11,18.8,18.8,0,0,1,3.51.33v2.07a15.3,15.3,0,0,0-3.51-.32,12.32,12.32,0,0,0-6.22,1.36V14.75ZM23.08,12a12.32,12.32,0,0,0-6.22,1.36V11.12A15.22,15.22,0,0,1,23.08,10a19.67,19.67,0,0,1,3.51.32v2.14A14.39,14.39,0,0,0,23.08,12ZM28,23.12V7.17a17,17,0,0,0-4.87-.65A14.06,14.06,0,0,0,15.5,8.6V24.48a14.16,14.16,0,0,1,7.58-2.07A16.69,16.69,0,0,1,28,23.12ZM23.08,3.73c3.29,0,5.84.7,7.65,2.08V26a.76.76,0,0,1-.71.71.87.87,0,0,1-.32-.06,13.79,13.79,0,0,0-6.62-1.43A14.08,14.08,0,0,0,15.5,27.3a12.34,12.34,0,0,0-7.58-2.08A15.15,15.15,0,0,0,1.3,26.68H1a.74.74,0,0,1-.49-.2A.56.56,0,0,1,.27,26V5.81Q3,3.73,7.92,3.73A12.34,12.34,0,0,1,15.5,5.81,12.34,12.34,0,0,1,23.08,3.73Z" transform="translate(-0.27 -3.71)"/></svg>