<svg id="Layer_1" data-name="Layer 1" xmlns="http://www.w3.org/2000/svg" viewBox="0 0 25.3 26.34"><defs><style>.cls-1{fill:#fff;}</style></defs><path class="cls-1" d="M13.39,3.13H2.86V13.66H13.39Z" transform="translate(-2.86 -2.33)"/><path class="cls-1" d="M17.61,17.87h3.16V20H17.61Z" transform="translate(-2.86 -2.33)"/><path class="cls-1" d="M21.82,17.87H25V20H21.82Z" transform="translate(-2.86 -2.33)"/><path class="cls-1" d="M26,17.87h2.11V21H26Z" transform="translate(-2.86 -2.33)"/><path class="cls-1" d="M17.61,25.25h2.1V28.4h-2.1Z" transform="translate(-2.86 -2.33)"/><path class="cls-1" d="M20.77,26.3h3.16v2.1H20.77Z" transform="translate(-2.86 -2.33)"/><path class="cls-1" d="M25,26.3h3.16v2.1H25Z" transform="translate(-2.86 -2.33)"/><path class="cls-1" d="M17.61,21h2.1v3.16h-2.1Z" transform="translate(-2.86 -2.33)"/><path class="cls-1" d="M26,22.09h2.11v3.16H26Z" transform="translate(-2.86 -2.33)"/><path class="cls-1" d="M12.29,24.06V21.33L15.91,25l-3.62,3.67V25.9a7,7,0,0,1-5.15-2.16A7,7,0,0,1,5,18.6a6.91,6.91,0,0,1,1.16-3.89L7.46,16a5.2,5.2,0,0,0-.64,2.56A5.46,5.46,0,0,0,12.29,24Z" transform="translate(-2.86 -2.33)"/><path class="cls-1" d="M18.66,5.1a7,7,0,0,1,5.15,2.16,7.14,7.14,0,0,1,1,9L23.48,15a5.08,5.08,0,0,0,.65-2.56,5.26,5.26,0,0,0-1.61-3.86A5.21,5.21,0,0,0,18.66,7V9.67L15,6l3.63-3.67V5.1Z" transform="translate(-2.86 -2.33)"/></svg>